# xmcd CD database file
#
# Track frame offsets:
#	150
#	10023
#	23270
#	34576
#	44774
#	57853
#	70056
#	80217
#	96892
#	110565
#	124417
#	137613
#	149376
#	159995
#	170570
#
# Disc length: 2432 seconds
#
# Revision: 0
# Processed by: cddbd v1.5.2PL0 Copyright (c) Steve Scherf et al.
# Submitted via: CDex 1.78
#
DISCID=c8097e0f
DTITLE=Ilse Huizinga - Intimate Jazz Sessions CD2 - The Club Sessions
DYEAR=2006
DGENRE=Jazz
TTITLE0=Blue moon
TTITLE1=Steppin' out with my baby
TTITLE2=Can't help lovin' dat man
TTITLE3=Dream a little dream of me
TTITLE4=Fever
TTITLE5=That old black magic
TTITLE6=My baby just cares for me
TTITLE7=Glory of love
TTITLE8=There's a boat that's leavin' soon for New York
TTITLE9=Sentimental journey
TTITLE10=What's your story morning glory
TTITLE11=Love me or leave me
TTITLE12=Don't be that way
TTITLE13=Hallelujah I just love him so
TTITLE14=The more I see you
EXTD=YEAR: 2006
EXTT0=
EXTT1=
EXTT2=
EXTT3=
EXTT4=
EXTT5=
EXTT6=
EXTT7=
EXTT8=
EXTT9=
EXTT10=
EXTT11=
EXTT12=
EXTT13=
EXTT14=
PLAYORDER=
